# xmcd
#
# Track frame offsets: 
#        150
#        17697
#        36335
#        58145
#
# Disc length: 1015 seconds
#
# Revision: 0
# Processed by: cddbd v1.5.2PL0 Copyright (c) Steve Scherf et al.
# Submitted via: ExactAudioCopy v0.99pb4
#
DISCID=2f03f504
DTITLE=Tone Loc - On Fire and Funky Cold Medina
DYEAR=1989
DGENRE=Rap
TTITLE0=On Fire (Edit)
TTITLE1=Funky Cold Medina
TTITLE2=On Fire
TTITLE3=Wild Thing (Edit)
EXTD=
EXTT0=
EXTT1=
EXTT2=
EXTT3=
PLAYORDER=
